# xmcd
#
# Track frame offsets:
#	182
#	14107
#	27960
#	40995
#	57965
#	88865
#	104137
#	120702
#	137147
#	152660
#
# Disc length: 2308 seconds
#
# Revision: 4
# Processed by: cddbd v1.5.2PL0 Copyright (c) Steve Scherf et al.
# Submitted via: EasyCDDAExtractor 15.3.0.1
#
DISCID=8d09020a
DTITLE=Rocio Durcal - Canta A Juan Gabriel
DYEAR=1984
DGENRE=Latin
TTITLE0=Estas Tan Dentro De Mi
TTITLE1=De Serenata
TTITLE2=El Canalla
TTITLE3=Dejame Vivir (A Duo Con Juan Gabriel)
TTITLE4=Amor Eterno
TTITLE5=Te Dedico Esta Cancion
TTITLE6=Perdoname, Olvidalo (A Duo Con Juan Gabriel)
TTITLE7=Te Quiero Mucho Mucho (A Duo Con Juan Gabriel)
TTITLE8=Diferentes
TTITLE9=Costumbres
EXTD=(C) 1984 RCA/Ariola Internacional S. de R.L. de C.V.\n\nLetra y Musicande
EXTD=Todos los Temas\nJuan Gabriel YEAR: 1984
EXTT0=
EXTT1=
EXTT2=
EXTT3=
EXTT4=
EXTT5=
EXTT6=
EXTT7=
EXTT8=
EXTT9=
PLAYORDER=
